# MagicaVoxel @ Ephtracy

# group
o 

# material
mtllib panTacoConCarneYQuetchup.mtl
usemtl palette

# normals
vn -1 0 0
vn 1 0 0
vn 0 0 1
vn 0 0 -1
vn 0 -1 0
vn 0 1 0

# texcoords
vt 0.0332031 0.5
vt 0.0605469 0.5
vt 0.845703 0.5
vt 0.865234 0.5

# verts
v -1.5 0 0.6
v -1.5 0 -0.5
v -1.5 0.1 0.5
v -1.5 0.1 -5.96046e-008
v -1.5 0.1 -0.2
v -1.5 0.1 -0.4
v -1.5 0.2 0.4
v -1.5 0.2 -5.96046e-008
v -1.5 0.2 -0.2
v -1.5 0.2 -0.3
v -1.5 0.4 0.5
v -1.5 0.4 0.4
v -1.5 0.6 0.5
v -1.5 0.6 0.4
v -1.5 0.9 -0.3
v -1.5 0.9 -0.4
v -1.5 1 -0.3
v -1.5 1 -0.4
v -1.5 1.1 0.6
v -1.5 1.1 0.5
v -1.5 1.1 0.4
v -1.5 1.1 -0.3
v -1.5 1.1 -0.4
v -1.5 1.1 -0.5
v -1.4 0.2 0.4
v -1.4 0.2 -5.96046e-008
v -1.4 0.2 -0.1
v -1.4 0.2 -0.2
v -1.4 0.2 -0.3
v -1.4 0.3 0.0999999
v -1.4 0.3 -5.96046e-008
v -1.4 0.4 0.4
v -1.4 0.4 -5.96046e-008
v -1.4 0.4 -0.1
v -1.4 0.5 0.4
v -1.4 0.5 0.3
v -1.4 0.5 -5.96046e-008
v -1.4 0.5 -0.1
v -1.4 0.6 0.4
v -1.4 0.6 0.2
v -1.4 0.6 0.0999999
v -1.4 0.7 0.3
v -1.4 0.7 0.2
v -1.4 0.7 0.0999999
v -1.4 0.7 -5.96046e-008
v -1.4 0.8 0.4
v -1.4 0.8 0.3
v -1.4 0.9 0.2
v -1.4 0.9 0.0999999
v -1.4 0.9 -0.1
v -1.4 0.9 -0.3
v -1.4 1 0.4
v -1.4 1 0.3
v -1.4 1 0.2
v -1.4 1 -5.96046e-008
v -1.4 1 -0.3
v 1.2 0.2 0.4
v 1.2 0.2 0.3
v 1.2 0.2 -5.96046e-008
v 1.2 0.2 -0.1
v 1.2 0.2 -0.2
v 1.2 0.2 -0.3
v 1.2 0.3 0.0999999
v 1.2 0.3 -5.96046e-008
v 1.2 0.4 0.4
v 1.2 0.4 0.3
v 1.2 0.5 0.3
v 1.2 0.5 0.2
v 1.2 0.5 -0.2
v 1.2 0.5 -0.3
v 1.2 0.6 -5.96046e-008
v 1.2 0.6 -0.1
v 1.2 0.6 -0.2
v 1.2 0.7 0.0999999
v 1.2 0.7 -5.96046e-008
v 1.2 0.7 -0.2
v 1.2 0.7 -0.3
v 1.2 0.8 0.2
v 1.2 0.8 0.0999999
v 1.2 0.9 0.3
v 1.2 0.9 0.2
v 1.2 0.9 -0.2
v 1.2 0.9 -0.3
v 1.2 1 0.4
v 1.2 1 0.2
v 1.2 1 0.0999999
v 1.2 1 -5.96046e-008
v 1.2 1 -0.1
v 1.2 1 -0.2
v 1.2 1 -0.3
v 1.3 0 0.6
v 1.3 0 0.0999999
v 1.3 0 -5.96046e-008
v 1.3 0 -0.5
v 1.3 0.1 0.5
v 1.3 0.1 0.3
v 1.3 0.1 0.0999999
v 1.3 0.1 -5.96046e-008
v 1.3 0.1 -0.1
v 1.3 0.1 -0.2
v 1.3 0.1 -0.4
v 1.3 0.2 0.4
v 1.3 0.2 0.3
v 1.3 0.2 -5.96046e-008
v 1.3 0.2 -0.1
v 1.3 0.2 -0.2
v 1.3 0.2 -0.3
v 1.3 1 -0.3
v 1.3 1 -0.4
v 1.3 1.1 0.6
v 1.3 1.1 0.5
v 1.3 1.1 0.4
v 1.3 1.1 -0.3
v 1.3 1.1 -0.4
v 1.3 1.1 -0.5
v -1.5 0 0.6
v -1.5 1.1 0.6
v -0.1 1 0.6
v -0.1 1.1 0.6
v 0 1 0.6
v 0 1.1 0.6
v 1.3 0 0.6
v 1.3 1.1 0.6
v -1.5 0.2 -0.3
v -1.5 0.9 -0.3
v -1.5 1 -0.3
v -1.5 1.1 -0.3
v -1.4 0.2 -0.3
v -1.4 0.9 -0.3
v -1.4 1 -0.3
v -1.1 1 -0.3
v -1.1 1.1 -0.3
v -0.9 1 -0.3
v -0.6 1 -0.3
v -0.5 1 -0.3
v -0.5 1.1 -0.3
v -0.4 1 -0.3
v 0.2 1 -0.3
v 1.1 1 -0.3
v 1.1 1.1 -0.3
v 1.2 0.2 -0.3
v 1.2 0.5 -0.3
v 1.2 0.7 -0.3
v 1.2 0.9 -0.3
v 1.2 1 -0.3
v 1.3 0.2 -0.3
v 1.3 1 -0.3
v 1.3 1.1 -0.3
v -1.5 0.2 0.4
v -1.5 0.4 0.4
v -1.5 0.6 0.4
v -1.5 1.1 0.4
v -1.4 0.2 0.4
v -1.4 0.4 0.4
v -1.4 0.5 0.4
v -1.4 0.6 0.4
v -1.4 0.8 0.4
v -1.4 1 0.4
v -0.2 1 0.4
v -0.2 1.1 0.4
v 0 1 0.4
v 0 1.1 0.4
v 1.2 0.2 0.4
v 1.2 0.4 0.4
v 1.2 1 0.4
v 1.3 0.2 0.4
v 1.3 1.1 0.4
v -1.5 0 -0.5
v -1.5 1.1 -0.5
v 1.3 0 -0.5
v 1.3 1.1 -0.5
v -1.5 0 0.6
v 1.3 0 0.6
v 1.2 0 0.0999999
v 1.3 0 0.0999999
v 1.2 0 -5.96046e-008
v 1.3 0 -5.96046e-008
v -1.5 0 -0.5
v 1.3 0 -0.5
v -1.5 0.2 0.4
v -1.4 0.2 0.4
v 1.2 0.2 0.4
v 1.3 0.2 0.4
v 1.2 0.2 0.3
v 1.3 0.2 0.3
v -1.5 0.2 -5.96046e-008
v -1.4 0.2 -5.96046e-008
v 1.2 0.2 -5.96046e-008
v 1.3 0.2 -5.96046e-008
v -1.4 0.2 -0.1
v 1.2 0.2 -0.1
v 1.3 0.2 -0.1
v -1.5 0.2 -0.2
v -1.4 0.2 -0.2
v 1.2 0.2 -0.2
v 1.3 0.2 -0.2
v -1.5 0.2 -0.3
v -1.4 0.2 -0.3
v 1.2 0.2 -0.3
v 1.3 0.2 -0.3
v -1.4 1 0.4
v -0.2 1 0.4
v 0 1 0.4
v 1.2 1 0.4
v -1.4 1 0.3
v -0.2 1 0.3
v -0.1 1 0.3
v 0 1 0.3
v 0.5 1 0.3
v 1 1 0.3
v -1.4 1 0.2
v -1.2 1 0.2
v -0.8 1 0.2
v -0.6 1 0.2
v -0.4 1 0.2
v -0.2 1 0.2
v -0.1 1 0.2
v 0.5 1 0.2
v 0.6 1 0.2
v 0.9 1 0.2
v 1 1 0.2
v 1.2 1 0.2
v -1.2 1 0.0999999
v -0.8 1 0.0999999
v -0.6 1 0.0999999
v -0.4 1 0.0999999
v -0.2 1 0.0999999
v 0.6 1 0.0999999
v 0.9 1 0.0999999
v 1.2 1 0.0999999
v -1.4 1 -5.96046e-008
v -1.2 1 -5.96046e-008
v -0.8 1 -5.96046e-008
v -0.4 1 -5.96046e-008
v -0.2 1 -5.96046e-008
v -0.1 1 -5.96046e-008
v 0.7 1 -5.96046e-008
v 1.2 1 -5.96046e-008
v -1.3 1 -0.1
v -1.2 1 -0.1
v -0.4 1 -0.1
v -0.2 1 -0.1
v -0.1 1 -0.1
v 0.3 1 -0.1
v 0.7 1 -0.1
v 1.2 1 -0.1
v -1.3 1 -0.2
v -0.9 1 -0.2
v -0.6 1 -0.2
v -0.4 1 -0.2
v -0.2 1 -0.2
v 0.2 1 -0.2
v 0.3 1 -0.2
v 1.2 1 -0.2
v -1.4 1 -0.3
v -1.1 1 -0.3
v -0.9 1 -0.3
v -0.6 1 -0.3
v -0.5 1 -0.3
v -0.4 1 -0.3
v 0.2 1 -0.3
v 1.1 1 -0.3
v 1.2 1 -0.3
v -1.5 1.1 0.6
v -0.1 1.1 0.6
v 0 1.1 0.6
v 1.3 1.1 0.6
v -1.5 1.1 0.5
v -0.2 1.1 0.5
v -0.1 1.1 0.5
v 0 1.1 0.5
v 1.3 1.1 0.5
v -1.5 1.1 0.4
v -0.2 1.1 0.4
v 0 1.1 0.4
v 1.3 1.1 0.4
v -1.5 1.1 -0.3
v -1.1 1.1 -0.3
v -0.5 1.1 -0.3
v 1.1 1.1 -0.3
v 1.3 1.1 -0.3
v -1.5 1.1 -0.4
v -1.1 1.1 -0.4
v -0.5 1.1 -0.4
v 1.1 1.1 -0.4
v 1.3 1.1 -0.4
v -1.5 1.1 -0.5
v 1.3 1.1 -0.5

# faces
f 3/2/1 2/2/1 1/2/1
f 4/2/1 2/2/1 3/2/1
f 5/2/1 2/2/1 4/2/1
f 6/2/1 2/2/1 5/2/1
f 7/1/1 4/1/1 3/1/1
f 8/3/1 5/3/1 4/3/1
f 8/1/1 4/1/1 7/1/1
f 9/1/1 6/1/1 5/1/1
f 9/3/1 5/3/1 8/3/1
f 10/1/1 6/1/1 9/1/1
f 11/2/1 3/2/1 1/2/1
f 11/1/1 7/1/1 3/1/1
f 12/1/1 7/1/1 11/1/1
f 13/2/1 11/2/1 1/2/1
f 13/3/1 12/3/1 11/3/1
f 14/3/1 12/3/1 13/3/1
f 15/1/1 6/1/1 10/1/1
f 16/2/1 2/2/1 6/2/1
f 16/1/1 6/1/1 15/1/1
f 17/3/1 16/3/1 15/3/1
f 18/2/1 2/2/1 16/2/1
f 18/3/1 16/3/1 17/3/1
f 19/2/1 13/2/1 1/2/1
f 20/1/1 14/1/1 13/1/1
f 20/2/1 13/2/1 19/2/1
f 21/1/1 14/1/1 20/1/1
f 22/1/1 18/1/1 17/1/1
f 23/2/1 2/2/1 18/2/1
f 23/1/1 18/1/1 22/1/1
f 24/2/1 2/2/1 23/2/1
f 30/4/1 26/4/1 25/4/1
f 31/3/1 27/3/1 26/3/1
f 31/4/1 26/4/1 30/4/1
f 32/4/1 30/4/1 25/4/1
f 33/3/1 27/3/1 31/3/1
f 33/3/1 31/3/1 30/3/1
f 34/4/1 29/4/1 28/4/1
f 34/3/1 27/3/1 33/3/1
f 34/4/1 28/4/1 27/4/1
f 35/4/1 30/4/1 32/4/1
f 36/4/1 30/4/1 35/4/1
f 37/3/1 33/3/1 30/3/1
f 37/4/1 34/4/1 33/4/1
f 38/4/1 29/4/1 34/4/1
f 38/4/1 34/4/1 37/4/1
f 39/3/1 36/3/1 35/3/1
f 40/4/1 30/4/1 36/4/1
f 41/3/1 37/3/1 30/3/1
f 41/4/1 30/4/1 40/4/1
f 41/3/1 38/3/1 37/3/1
f 42/3/1 36/3/1 39/3/1
f 42/4/1 40/4/1 36/4/1
f 43/3/1 41/3/1 40/3/1
f 43/4/1 40/4/1 42/4/1
f 44/3/1 38/3/1 41/3/1
f 44/3/1 41/3/1 43/3/1
f 45/3/1 38/3/1 44/3/1
f 46/3/1 43/3/1 42/3/1
f 46/3/1 42/3/1 39/3/1
f 46/3/1 44/3/1 43/3/1
f 47/3/1 44/3/1 46/3/1
f 48/3/1 44/3/1 47/3/1
f 49/4/1 45/4/1 44/4/1
f 49/3/1 44/3/1 48/3/1
f 50/3/1 38/3/1 45/3/1
f 50/4/1 29/4/1 38/4/1
f 51/4/1 29/4/1 50/4/1
f 52/4/1 47/4/1 46/4/1
f 53/3/1 48/3/1 47/3/1
f 53/4/1 47/4/1 52/4/1
f 54/4/1 49/4/1 48/4/1
f 54/3/1 48/3/1 53/3/1
f 55/4/1 45/4/1 49/4/1
f 55/4/1 49/4/1 54/4/1
f 55/3/1 50/3/1 45/3/1
f 55/3/1 51/3/1 50/3/1
f 56/3/1 51/3/1 55/3/1
f 58/4/2 59/4/2 63/4/2
f 59/4/2 60/4/2 63/4/2
f 63/4/2 60/4/2 64/4/2
f 57/3/2 58/3/2 65/3/2
f 58/4/2 63/4/2 66/4/2
f 65/3/2 58/3/2 66/3/2
f 65/4/2 66/4/2 67/4/2
f 66/4/2 63/4/2 67/4/2
f 67/4/2 63/4/2 68/4/2
f 61/4/2 62/4/2 69/4/2
f 60/3/2 61/3/2 69/3/2
f 69/4/2 62/4/2 70/4/2
f 64/4/2 60/4/2 71/4/2
f 63/3/2 64/3/2 71/3/2
f 69/3/2 70/3/2 72/3/2
f 71/4/2 60/4/2 72/4/2
f 60/3/2 69/3/2 72/3/2
f 72/3/2 70/3/2 73/3/2
f 68/4/2 63/4/2 74/4/2
f 63/3/2 71/3/2 74/3/2
f 71/3/2 72/3/2 74/3/2
f 74/3/2 72/3/2 75/3/2
f 73/3/2 70/3/2 76/3/2
f 72/4/2 73/4/2 76/4/2
f 76/3/2 70/3/2 77/3/2
f 67/3/2 68/3/2 78/3/2
f 74/4/2 75/4/2 78/4/2
f 68/4/2 74/4/2 78/4/2
f 78/4/2 75/4/2 79/4/2
f 65/4/2 67/4/2 80/4/2
f 67/3/2 78/3/2 80/3/2
f 78/3/2 79/3/2 80/3/2
f 80/3/2 79/3/2 81/3/2
f 76/4/2 77/4/2 82/4/2
f 72/4/2 76/4/2 82/4/2
f 82/4/2 77/4/2 83/4/2
f 80/4/2 81/4/2 84/4/2
f 65/4/2 80/4/2 84/4/2
f 81/3/2 79/3/2 85/3/2
f 84/4/2 81/4/2 85/4/2
f 79/4/2 75/4/2 86/4/2
f 85/3/2 79/3/2 86/3/2
f 75/3/2 72/3/2 87/3/2
f 86/4/2 75/4/2 87/4/2
f 72/4/2 82/4/2 88/4/2
f 87/3/2 72/3/2 88/3/2
f 82/3/2 83/3/2 89/3/2
f 88/4/2 82/4/2 89/4/2
f 89/3/2 83/3/2 90/3/2
f 91/2/2 92/2/2 95/2/2
f 95/2/2 92/2/2 96/2/2
f 92/3/2 93/3/2 97/3/2
f 96/2/2 92/2/2 97/2/2
f 93/2/2 94/2/2 98/2/2
f 97/3/2 93/3/2 98/3/2
f 98/2/2 94/2/2 99/2/2
f 99/2/2 94/2/2 100/2/2
f 100/2/2 94/2/2 101/2/2
f 95/1/2 96/1/2 102/1/2
f 96/3/2 97/3/2 103/3/2
f 102/1/2 96/1/2 103/1/2
f 97/3/2 98/3/2 103/3/2
f 98/1/2 99/1/2 104/1/2
f 103/3/2 98/3/2 104/3/2
f 99/3/2 100/3/2 105/3/2
f 104/1/2 99/1/2 105/1/2
f 100/1/2 101/1/2 106/1/2
f 105/3/2 100/3/2 106/3/2
f 106/1/2 101/1/2 107/1/2
f 107/1/2 101/1/2 108/1/2
f 101/2/2 94/2/2 109/2/2
f 108/1/2 101/1/2 109/1/2
f 91/2/2 95/2/2 110/2/2
f 95/1/2 102/1/2 111/1/2
f 110/2/2 95/2/2 111/2/2
f 111/1/2 102/1/2 112/1/2
f 108/3/2 109/3/2 113/3/2
f 109/2/2 94/2/2 114/2/2
f 113/3/2 109/3/2 114/3/2
f 114/2/2 94/2/2 115/2/2
f 118/2/3 117/2/3 116/2/3
f 119/2/3 117/2/3 118/2/3
f 120/2/3 118/2/3 116/2/3
f 120/3/3 119/3/3 118/3/3
f 121/3/3 119/3/3 120/3/3
f 122/2/3 120/2/3 116/2/3
f 122/2/3 121/2/3 120/2/3
f 123/2/3 121/2/3 122/2/3
f 128/1/3 125/1/3 124/1/3
f 129/3/3 126/3/3 125/3/3
f 129/1/3 125/1/3 128/1/3
f 130/1/3 127/1/3 126/1/3
f 130/3/3 126/3/3 129/3/3
f 131/1/3 127/1/3 130/1/3
f 132/1/3 127/1/3 131/1/3
f 133/3/3 132/3/3 131/3/3
f 134/3/3 132/3/3 133/3/3
f 135/3/3 132/3/3 134/3/3
f 136/3/3 132/3/3 135/3/3
f 137/1/3 136/1/3 135/1/3
f 138/1/3 136/1/3 137/1/3
f 139/1/3 136/1/3 138/1/3
f 140/1/3 136/1/3 139/1/3
f 145/3/3 140/3/3 139/3/3
f 146/1/3 144/1/3 143/1/3
f 146/1/3 145/1/3 144/1/3
f 146/1/3 142/1/3 141/1/3
f 146/1/3 143/1/3 142/1/3
f 147/3/3 140/3/3 145/3/3
f 147/1/3 145/1/3 146/1/3
f 148/3/3 140/3/3 147/3/3
f 149/1/4 150/1/4 153/1/4
f 150/3/4 151/3/4 154/3/4
f 153/1/4 150/1/4 154/1/4
f 154/3/4 151/3/4 155/3/4
f 151/1/4 152/1/4 156/1/4
f 155/3/4 151/3/4 156/3/4
f 156/1/4 152/1/4 157/1/4
f 157/1/4 152/1/4 158/1/4
f 158/1/4 152/1/4 159/1/4
f 159/1/4 152/1/4 160/1/4
f 159/3/4 160/3/4 161/3/4
f 161/3/4 160/3/4 162/3/4
f 161/1/4 162/1/4 165/1/4
f 163/1/4 164/1/4 166/1/4
f 164/1/4 165/1/4 166/1/4
f 165/1/4 162/1/4 167/1/4
f 166/1/4 165/1/4 167/1/4
f 168/2/4 169/2/4 170/2/4
f 170/2/4 169/2/4 171/2/4
f 174/2/5 173/2/5 172/2/5
f 175/2/5 173/2/5 174/2/5
f 176/2/5 174/2/5 172/2/5
f 176/3/5 175/3/5 174/3/5
f 177/3/5 175/3/5 176/3/5
f 178/2/5 176/2/5 172/2/5
f 178/2/5 177/2/5 176/2/5
f 179/2/5 177/2/5 178/2/5
f 182/1/6 183/1/6 184/1/6
f 184/1/6 183/1/6 185/1/6
f 180/1/6 181/1/6 186/1/6
f 186/1/6 181/1/6 187/1/6
f 184/3/6 185/3/6 188/3/6
f 188/3/6 185/3/6 189/3/6
f 186/3/6 187/3/6 190/3/6
f 188/1/6 189/1/6 191/1/6
f 191/1/6 189/1/6 192/1/6
f 186/3/6 190/3/6 193/3/6
f 193/3/6 190/3/6 194/3/6
f 191/3/6 192/3/6 195/3/6
f 195/3/6 192/3/6 196/3/6
f 193/1/6 194/1/6 197/1/6
f 197/1/6 194/1/6 198/1/6
f 195/1/6 196/1/6 199/1/6
f 199/1/6 196/1/6 200/1/6
f 201/4/6 202/4/6 205/4/6
f 202/3/6 203/3/6 206/3/6
f 205/4/6 202/4/6 206/4/6
f 206/3/6 203/3/6 207/3/6
f 203/4/6 204/4/6 208/4/6
f 207/3/6 203/3/6 208/3/6
f 208/4/6 204/4/6 209/4/6
f 209/4/6 204/4/6 210/4/6
f 206/3/6 207/3/6 211/3/6
f 205/3/6 206/3/6 211/3/6
f 211/3/6 207/3/6 212/3/6
f 212/3/6 207/3/6 213/3/6
f 213/3/6 207/3/6 214/3/6
f 214/3/6 207/3/6 215/3/6
f 215/3/6 207/3/6 216/3/6
f 207/4/6 208/4/6 217/4/6
f 216/3/6 207/3/6 217/3/6
f 208/4/6 209/4/6 217/4/6
f 209/3/6 210/3/6 218/3/6
f 217/4/6 209/4/6 218/4/6
f 218/3/6 210/3/6 219/3/6
f 219/3/6 210/3/6 220/3/6
f 210/4/6 204/4/6 221/4/6
f 220/3/6 210/3/6 221/3/6
f 221/4/6 204/4/6 222/4/6
f 211/4/6 212/4/6 223/4/6
f 212/3/6 213/3/6 223/3/6
f 213/4/6 214/4/6 224/4/6
f 223/3/6 213/3/6 224/3/6
f 214/3/6 215/3/6 225/3/6
f 224/4/6 214/4/6 225/4/6
f 215/4/6 216/4/6 226/4/6
f 225/3/6 215/3/6 226/3/6
f 216/3/6 217/3/6 227/3/6
f 226/4/6 216/4/6 227/4/6
f 217/3/6 218/3/6 227/3/6
f 218/3/6 219/3/6 227/3/6
f 219/4/6 220/4/6 228/4/6
f 227/3/6 219/3/6 228/3/6
f 221/3/6 222/3/6 229/3/6
f 228/4/6 220/4/6 229/4/6
f 220/3/6 221/3/6 229/3/6
f 229/3/6 222/3/6 230/3/6
f 223/4/6 224/4/6 231/4/6
f 211/4/6 223/4/6 231/4/6
f 231/4/6 224/4/6 232/4/6
f 226/3/6 227/3/6 233/3/6
f 232/4/6 224/4/6 233/4/6
f 225/3/6 226/3/6 233/3/6
f 224/3/6 225/3/6 233/3/6
f 233/3/6 227/3/6 234/3/6
f 228/4/6 229/4/6 235/4/6
f 234/3/6 227/3/6 235/3/6
f 227/4/6 228/4/6 235/4/6
f 229/4/6 230/4/6 235/4/6
f 235/4/6 230/4/6 236/4/6
f 236/4/6 230/4/6 237/4/6
f 237/4/6 230/4/6 238/4/6
f 231/3/6 232/3/6 239/3/6
f 233/4/6 234/4/6 240/4/6
f 239/3/6 232/3/6 240/3/6
f 232/4/6 233/4/6 240/4/6
f 234/3/6 235/3/6 241/3/6
f 240/4/6 234/4/6 241/4/6
f 235/3/6 236/3/6 241/3/6
f 241/3/6 236/3/6 242/3/6
f 236/4/6 237/4/6 243/4/6
f 242/3/6 236/3/6 243/3/6
f 243/4/6 237/4/6 244/4/6
f 237/3/6 238/3/6 245/3/6
f 244/4/6 237/4/6 245/4/6
f 245/3/6 238/3/6 246/3/6
f 231/3/6 239/3/6 247/3/6
f 239/4/6 240/4/6 247/4/6
f 241/4/6 242/4/6 247/4/6
f 240/4/6 241/4/6 247/4/6
f 247/4/6 242/4/6 248/4/6
f 248/4/6 242/4/6 249/4/6
f 249/4/6 242/4/6 250/4/6
f 243/3/6 244/3/6 251/3/6
f 250/4/6 242/4/6 251/4/6
f 242/3/6 243/3/6 251/3/6
f 251/3/6 244/3/6 252/3/6
f 245/4/6 246/4/6 253/4/6
f 252/3/6 244/3/6 253/3/6
f 244/4/6 245/4/6 253/4/6
f 253/4/6 246/4/6 254/4/6
f 231/3/6 247/3/6 255/3/6
f 247/3/6 248/3/6 255/3/6
f 255/3/6 248/3/6 256/3/6
f 248/4/6 249/4/6 257/4/6
f 256/3/6 248/3/6 257/3/6
f 249/3/6 250/3/6 258/3/6
f 257/4/6 249/4/6 258/4/6
f 258/3/6 250/3/6 259/3/6
f 251/4/6 252/4/6 260/4/6
f 259/3/6 250/3/6 260/3/6
f 250/4/6 251/4/6 260/4/6
f 253/3/6 254/3/6 261/3/6
f 260/4/6 252/4/6 261/4/6
f 252/3/6 253/3/6 261/3/6
f 261/3/6 254/3/6 262/3/6
f 262/3/6 254/3/6 263/3/6
f 264/2/6 265/2/6 268/2/6
f 268/2/6 265/2/6 269/2/6
f 265/3/6 266/3/6 270/3/6
f 269/2/6 265/2/6 270/2/6
f 266/2/6 267/2/6 271/2/6
f 270/3/6 266/3/6 271/3/6
f 271/2/6 267/2/6 272/2/6
f 268/1/6 269/1/6 273/1/6
f 269/3/6 270/3/6 274/3/6
f 273/1/6 269/1/6 274/1/6
f 270/3/6 271/3/6 274/3/6
f 271/1/6 272/1/6 275/1/6
f 274/3/6 271/3/6 275/3/6
f 275/1/6 272/1/6 276/1/6
f 277/1/6 278/1/6 282/1/6
f 278/3/6 279/3/6 283/3/6
f 282/1/6 278/1/6 283/1/6
f 279/1/6 280/1/6 284/1/6
f 283/3/6 279/3/6 284/3/6
f 280/3/6 281/3/6 285/3/6
f 284/1/6 280/1/6 285/1/6
f 285/3/6 281/3/6 286/3/6
f 283/2/6 284/2/6 287/2/6
f 282/2/6 283/2/6 287/2/6
f 285/2/6 286/2/6 287/2/6
f 284/2/6 285/2/6 287/2/6
f 287/2/6 286/2/6 288/2/6
