# MagicaVoxel @ Ephtracy

# group
o 

# material
mtllib MesaCortar.mtl
usemtl palette

# normals
vn -1 0 0
vn 1 0 0
vn 0 0 1
vn 0 0 -1
vn 0 -1 0
vn 0 1 0

# texcoords
vt 0.533203 0.5
vt 0.537109 0.5
vt 0.619141 0.5
vt 0.958984 0.5
vt 0.966797 0.5

# verts
v -1 0 0.9
v -1 0 -0.5
v -1 0.1 0.9
v -1 0.1 -0.5
v -0.9 0.9 -0.3
v -0.9 0.9 -0.4
v -0.9 1 0.8
v -0.9 1 -0.3
v -0.9 1.1 0.8
v -0.9 1.1 -0.4
v -0.8 0.1 0.7
v -0.8 0.1 -0.3
v -0.8 0.9 -0.3
v -0.8 1 0.7
v -0.8 1 -0.3
v -0.7 0.3 0.8
v -0.7 0.3 0.7
v -0.7 0.8 0.8
v -0.7 0.8 0.7
v -0.7 1.1 0.6
v -0.7 1.1 -0.1
v -0.7 1.2 0.6
v -0.7 1.2 -0.1
v -0.4 0.2 0.5
v -0.4 0.2 0.4
v -0.4 0.3 0.5
v -0.4 0.3 0.4
v -0.0999999 0.2 0.6
v -0.0999999 0.2 0.5
v -0.0999999 0.3 0.6
v -0.0999999 0.3 0.5
v -0.0999999 0.5 0.9
v -0.0999999 0.5 0.8
v -0.0999999 0.6 0.9
v -0.0999999 0.6 0.8
v 0.6 0.2 0.6
v 0.6 0.2 -0.2
v 0.6 1 0.6
v 0.6 1 -0.2
v -0.7 0.2 0.6
v -0.7 0.2 -0.2
v -0.7 1 0.6
v -0.7 1 -0.2
v -0.3 0.2 0.5
v -0.3 0.2 0.4
v -0.3 0.3 0.5
v -0.3 0.3 0.4
v 1.19209e-007 0.5 0.9
v 1.19209e-007 0.5 0.8
v 1.19209e-007 0.6 0.9
v 1.19209e-007 0.6 0.8
v 0.3 0.2 0.6
v 0.3 0.2 0.5
v 0.3 0.3 0.6
v 0.3 0.3 0.5
v 0.6 0.3 0.8
v 0.6 0.3 0.7
v 0.6 0.8 0.8
v 0.6 0.8 0.7
v 0.6 1.1 0.6
v 0.6 1.1 -0.1
v 0.6 1.2 0.6
v 0.6 1.2 -0.1
v 0.7 0.1 0.7
v 0.7 0.1 -0.3
v 0.7 0.9 -0.3
v 0.7 1 0.7
v 0.7 1 -0.3
v 0.8 0.9 -0.3
v 0.8 0.9 -0.4
v 0.8 1 0.8
v 0.8 1 -0.3
v 0.8 1.1 0.8
v 0.8 1.1 -0.4
v 0.9 0 0.9
v 0.9 0 -0.5
v 0.9 0.1 0.9
v 0.9 0.1 -0.5
v -1 0 0.9
v -1 0.1 0.9
v -0.0999999 0.5 0.9
v -0.0999999 0.6 0.9
v 1.19209e-007 0.5 0.9
v 1.19209e-007 0.6 0.9
v 0.9 0 0.9
v 0.9 0.1 0.9
v -0.9 1 0.8
v -0.9 1.1 0.8
v -0.7 0.3 0.8
v -0.7 0.8 0.8
v -0.0999999 0.5 0.8
v -0.0999999 0.6 0.8
v 1.19209e-007 0.5 0.8
v 1.19209e-007 0.6 0.8
v 0.6 0.3 0.8
v 0.6 0.8 0.8
v 0.8 1 0.8
v 0.8 1.1 0.8
v -0.8 0.1 0.7
v -0.8 1 0.7
v -0.7 0.3 0.7
v -0.7 0.8 0.7
v 0.6 0.3 0.7
v 0.6 0.8 0.7
v 0.7 0.1 0.7
v 0.7 1 0.7
v -0.7 1.1 0.6
v -0.7 1.2 0.6
v 0.6 1.1 0.6
v 0.6 1.2 0.6
v -0.4 0.2 0.5
v -0.4 0.3 0.5
v -0.3 0.2 0.5
v -0.3 0.3 0.5
v -0.7 0.2 -0.2
v -0.7 1 -0.2
v 0.6 0.2 -0.2
v 0.6 1 -0.2
v -0.9 0.9 -0.3
v -0.9 1 -0.3
v -0.8 0.9 -0.3
v -0.8 1 -0.3
v 0.7 0.9 -0.3
v 0.7 1 -0.3
v 0.8 0.9 -0.3
v 0.8 1 -0.3
v -0.7 0.2 0.6
v -0.7 1 0.6
v -0.0999999 0.2 0.6
v -0.0999999 0.3 0.6
v 0.3 0.2 0.6
v 0.3 0.3 0.6
v 0.6 0.2 0.6
v 0.6 1 0.6
v -0.0999999 0.2 0.5
v -0.0999999 0.3 0.5
v 0.3 0.2 0.5
v 0.3 0.3 0.5
v -0.4 0.2 0.4
v -0.4 0.3 0.4
v -0.3 0.2 0.4
v -0.3 0.3 0.4
v -0.7 1.1 -0.1
v -0.7 1.2 -0.1
v 0.6 1.1 -0.1
v 0.6 1.2 -0.1
v -0.8 0.1 -0.3
v -0.8 0.9 -0.3
v 0.7 0.1 -0.3
v 0.7 0.9 -0.3
v -0.9 0.9 -0.4
v -0.9 1.1 -0.4
v 0.8 0.9 -0.4
v 0.8 1.1 -0.4
v -1 0 -0.5
v -1 0.1 -0.5
v 0.9 0 -0.5
v 0.9 0.1 -0.5
v -1 0 0.9
v 0.9 0 0.9
v -1 0 -0.5
v 0.9 0 -0.5
v -0.7 0.3 0.8
v 0.6 0.3 0.8
v -0.7 0.3 0.7
v 0.6 0.3 0.7
v -0.0999999 0.5 0.9
v 1.19209e-007 0.5 0.9
v -0.0999999 0.5 0.8
v 1.19209e-007 0.5 0.8
v -0.9 0.9 -0.3
v -0.8 0.9 -0.3
v 0.7 0.9 -0.3
v 0.8 0.9 -0.3
v -0.9 0.9 -0.4
v 0.8 0.9 -0.4
v -0.9 1 0.8
v 0.8 1 0.8
v -0.8 1 0.7
v 0.7 1 0.7
v -0.7 1 0.6
v 0.6 1 0.6
v -0.7 1 -0.2
v 0.6 1 -0.2
v -0.9 1 -0.3
v -0.8 1 -0.3
v 0.7 1 -0.3
v 0.8 1 -0.3
v -1 0.1 0.9
v 0.9 0.1 0.9
v -0.8 0.1 0.7
v 0.7 0.1 0.7
v -0.8 0.1 -0.3
v 0.7 0.1 -0.3
v -1 0.1 -0.5
v 0.9 0.1 -0.5
v -0.7 0.2 0.6
v -0.0999999 0.2 0.6
v 0.3 0.2 0.6
v 0.6 0.2 0.6
v -0.4 0.2 0.5
v -0.3 0.2 0.5
v -0.0999999 0.2 0.5
v 0.3 0.2 0.5
v -0.4 0.2 0.4
v -0.3 0.2 0.4
v -0.7 0.2 -0.2
v 0.6 0.2 -0.2
v -0.0999999 0.3 0.6
v 0.3 0.3 0.6
v -0.4 0.3 0.5
v -0.3 0.3 0.5
v -0.0999999 0.3 0.5
v 0.3 0.3 0.5
v -0.4 0.3 0.4
v -0.3 0.3 0.4
v -0.0999999 0.6 0.9
v 1.19209e-007 0.6 0.9
v -0.0999999 0.6 0.8
v 1.19209e-007 0.6 0.8
v -0.7 0.8 0.8
v 0.6 0.8 0.8
v -0.7 0.8 0.7
v 0.6 0.8 0.7
v -0.9 1.1 0.8
v 0.8 1.1 0.8
v -0.7 1.1 0.6
v 0.6 1.1 0.6
v -0.7 1.1 -0.1
v 0.6 1.1 -0.1
v -0.9 1.1 -0.4
v 0.8 1.1 -0.4
v -0.7 1.2 0.6
v 0.6 1.2 0.6
v -0.7 1.2 -0.1
v 0.6 1.2 -0.1

# faces
f 3/2/1 2/2/1 1/2/1
f 4/2/1 2/2/1 3/2/1
f 8/3/1 6/3/1 5/3/1
f 9/3/1 8/3/1 7/3/1
f 10/3/1 6/3/1 8/3/1
f 10/3/1 8/3/1 9/3/1
f 13/2/1 12/2/1 11/2/1
f 14/2/1 13/2/1 11/2/1
f 15/2/1 13/2/1 14/2/1
f 18/1/1 17/1/1 16/1/1
f 19/1/1 17/1/1 18/1/1
f 22/5/1 21/5/1 20/5/1
f 23/5/1 21/5/1 22/5/1
f 26/2/1 25/2/1 24/2/1
f 27/2/1 25/2/1 26/2/1
f 30/2/1 29/2/1 28/2/1
f 31/2/1 29/2/1 30/2/1
f 34/4/1 33/4/1 32/4/1
f 35/4/1 33/4/1 34/4/1
f 38/2/1 37/2/1 36/2/1
f 39/2/1 37/2/1 38/2/1
f 40/2/2 41/2/2 42/2/2
f 42/2/2 41/2/2 43/2/2
f 44/2/2 45/2/2 46/2/2
f 46/2/2 45/2/2 47/2/2
f 48/4/2 49/4/2 50/4/2
f 50/4/2 49/4/2 51/4/2
f 52/2/2 53/2/2 54/2/2
f 54/2/2 53/2/2 55/2/2
f 56/1/2 57/1/2 58/1/2
f 58/1/2 57/1/2 59/1/2
f 60/5/2 61/5/2 62/5/2
f 62/5/2 61/5/2 63/5/2
f 64/2/2 65/2/2 66/2/2
f 64/2/2 66/2/2 67/2/2
f 67/2/2 66/2/2 68/2/2
f 69/3/2 70/3/2 72/3/2
f 71/3/2 72/3/2 73/3/2
f 72/3/2 70/3/2 74/3/2
f 73/3/2 72/3/2 74/3/2
f 75/2/2 76/2/2 77/2/2
f 77/2/2 76/2/2 78/2/2
f 83/4/3 82/4/3 81/4/3
f 84/4/3 82/4/3 83/4/3
f 85/2/3 80/2/3 79/2/3
f 86/2/3 80/2/3 85/2/3
f 91/1/3 90/1/3 89/1/3
f 92/1/3 90/1/3 91/1/3
f 93/1/3 91/1/3 89/1/3
f 94/1/3 90/1/3 92/1/3
f 95/1/3 93/1/3 89/1/3
f 95/1/3 94/1/3 93/1/3
f 96/1/3 90/1/3 94/1/3
f 96/1/3 94/1/3 95/1/3
f 97/3/3 88/3/3 87/3/3
f 98/3/3 88/3/3 97/3/3
f 101/2/3 100/2/3 99/2/3
f 102/2/3 100/2/3 101/2/3
f 103/2/3 101/2/3 99/2/3
f 104/2/3 100/2/3 102/2/3
f 105/2/3 103/2/3 99/2/3
f 105/2/3 104/2/3 103/2/3
f 106/2/3 100/2/3 104/2/3
f 106/2/3 104/2/3 105/2/3
f 109/5/3 108/5/3 107/5/3
f 110/5/3 108/5/3 109/5/3
f 113/2/3 112/2/3 111/2/3
f 114/2/3 112/2/3 113/2/3
f 117/2/3 116/2/3 115/2/3
f 118/2/3 116/2/3 117/2/3
f 121/3/3 120/3/3 119/3/3
f 122/3/3 120/3/3 121/3/3
f 125/3/3 124/3/3 123/3/3
f 126/3/3 124/3/3 125/3/3
f 127/2/4 128/2/4 129/2/4
f 129/2/4 128/2/4 130/2/4
f 130/2/4 128/2/4 132/2/4
f 131/2/4 132/2/4 133/2/4
f 132/2/4 128/2/4 134/2/4
f 133/2/4 132/2/4 134/2/4
f 135/2/4 136/2/4 137/2/4
f 137/2/4 136/2/4 138/2/4
f 139/2/4 140/2/4 141/2/4
f 141/2/4 140/2/4 142/2/4
f 143/5/4 144/5/4 145/5/4
f 145/5/4 144/5/4 146/5/4
f 147/2/4 148/2/4 149/2/4
f 149/2/4 148/2/4 150/2/4
f 151/3/4 152/3/4 153/3/4
f 153/3/4 152/3/4 154/3/4
f 155/2/4 156/2/4 157/2/4
f 157/2/4 156/2/4 158/2/4
f 161/2/5 160/2/5 159/2/5
f 162/2/5 160/2/5 161/2/5
f 165/1/5 164/1/5 163/1/5
f 166/1/5 164/1/5 165/1/5
f 169/4/5 168/4/5 167/4/5
f 170/4/5 168/4/5 169/4/5
f 175/3/5 172/3/5 171/3/5
f 175/3/5 174/3/5 173/3/5
f 175/3/5 173/3/5 172/3/5
f 176/3/5 174/3/5 175/3/5
f 179/3/5 178/3/5 177/3/5
f 180/3/5 178/3/5 179/3/5
f 183/3/5 182/3/5 181/3/5
f 184/3/5 182/3/5 183/3/5
f 185/3/5 179/3/5 177/3/5
f 186/3/5 179/3/5 185/3/5
f 187/3/5 178/3/5 180/3/5
f 188/3/5 178/3/5 187/3/5
f 189/2/6 190/2/6 191/2/6
f 191/2/6 190/2/6 192/2/6
f 189/2/6 191/2/6 193/2/6
f 192/2/6 190/2/6 194/2/6
f 189/2/6 193/2/6 195/2/6
f 193/2/6 194/2/6 195/2/6
f 194/2/6 190/2/6 196/2/6
f 195/2/6 194/2/6 196/2/6
f 197/2/6 198/2/6 201/2/6
f 201/2/6 198/2/6 202/2/6
f 202/2/6 198/2/6 203/2/6
f 199/2/6 200/2/6 204/2/6
f 197/2/6 201/2/6 205/2/6
f 202/2/6 203/2/6 206/2/6
f 203/2/6 204/2/6 206/2/6
f 197/2/6 205/2/6 207/2/6
f 205/2/6 206/2/6 207/2/6
f 206/2/6 204/2/6 208/2/6
f 207/2/6 206/2/6 208/2/6
f 204/2/6 200/2/6 208/2/6
f 209/2/6 210/2/6 213/2/6
f 213/2/6 210/2/6 214/2/6
f 211/2/6 212/2/6 215/2/6
f 215/2/6 212/2/6 216/2/6
f 217/4/6 218/4/6 219/4/6
f 219/4/6 218/4/6 220/4/6
f 221/1/6 222/1/6 223/1/6
f 223/1/6 222/1/6 224/1/6
f 225/3/6 226/3/6 227/3/6
f 227/3/6 226/3/6 228/3/6
f 225/3/6 227/3/6 229/3/6
f 228/3/6 226/3/6 230/3/6
f 225/3/6 229/3/6 231/3/6
f 229/3/6 230/3/6 231/3/6
f 230/3/6 226/3/6 232/3/6
f 231/3/6 230/3/6 232/3/6
f 233/5/6 234/5/6 235/5/6
f 235/5/6 234/5/6 236/5/6
