# MagicaVoxel @ Ephtracy

# group
o 

# material
mtllib panTaco.mtl
usemtl palette

# normals
vn -1 0 0
vn 1 0 0
vn 0 0 1
vn 0 0 -1
vn 0 -1 0
vn 0 1 0

# texcoords
vt 0.0332031 0.5
vt 0.0605469 0.5

# verts
v -1.5 0 0.6
v -1.5 0 -0.5
v -1.5 0.1 0.5
v -1.5 0.1 -0.4
v -1.5 0.2 0.4
v -1.5 0.2 -0.3
v -1.5 1.1 0.6
v -1.5 1.1 0.5
v -1.5 1.1 0.4
v -1.5 1.1 -0.3
v -1.5 1.1 -0.4
v -1.5 1.1 -0.5
v 1.3 0 0.6
v 1.3 0 -0.5
v 1.3 0.1 0.5
v 1.3 0.1 -0.4
v 1.3 0.2 0.4
v 1.3 0.2 -0.3
v 1.3 1.1 0.6
v 1.3 1.1 0.5
v 1.3 1.1 0.4
v 1.3 1.1 -0.3
v 1.3 1.1 -0.4
v 1.3 1.1 -0.5
v -1.5 0 0.6
v -1.5 1.1 0.6
v 1.3 0 0.6
v 1.3 1.1 0.6
v -1.5 0.2 -0.3
v -1.5 1.1 -0.3
v 1.3 0.2 -0.3
v 1.3 1.1 -0.3
v -1.5 0.2 0.4
v -1.5 1.1 0.4
v 1.3 0.2 0.4
v 1.3 1.1 0.4
v -1.5 0 -0.5
v -1.5 1.1 -0.5
v 1.3 0 -0.5
v 1.3 1.1 -0.5
v -1.5 0 0.6
v 1.3 0 0.6
v -1.5 0 -0.5
v 1.3 0 -0.5
v -1.5 0.2 0.4
v 1.3 0.2 0.4
v -1.5 0.2 -0.3
v 1.3 0.2 -0.3
v -1.5 1.1 0.6
v 1.3 1.1 0.6
v -1.5 1.1 0.5
v 1.3 1.1 0.5
v -1.5 1.1 0.4
v 1.3 1.1 0.4
v -1.5 1.1 -0.3
v 1.3 1.1 -0.3
v -1.5 1.1 -0.4
v 1.3 1.1 -0.4
v -1.5 1.1 -0.5
v 1.3 1.1 -0.5

# faces
f 3/2/1 2/2/1 1/2/1
f 4/2/1 2/2/1 3/2/1
f 5/1/1 4/1/1 3/1/1
f 6/1/1 4/1/1 5/1/1
f 7/2/1 3/2/1 1/2/1
f 8/1/1 5/1/1 3/1/1
f 8/2/1 3/2/1 7/2/1
f 9/1/1 5/1/1 8/1/1
f 10/1/1 4/1/1 6/1/1
f 11/2/1 2/2/1 4/2/1
f 11/1/1 4/1/1 10/1/1
f 12/2/1 2/2/1 11/2/1
f 13/2/2 14/2/2 15/2/2
f 15/2/2 14/2/2 16/2/2
f 15/1/2 16/1/2 17/1/2
f 17/1/2 16/1/2 18/1/2
f 13/2/2 15/2/2 19/2/2
f 15/1/2 17/1/2 20/1/2
f 19/2/2 15/2/2 20/2/2
f 20/1/2 17/1/2 21/1/2
f 18/1/2 16/1/2 22/1/2
f 16/2/2 14/2/2 23/2/2
f 22/1/2 16/1/2 23/1/2
f 23/2/2 14/2/2 24/2/2
f 27/2/3 26/2/3 25/2/3
f 28/2/3 26/2/3 27/2/3
f 31/1/3 30/1/3 29/1/3
f 32/1/3 30/1/3 31/1/3
f 33/1/4 34/1/4 35/1/4
f 35/1/4 34/1/4 36/1/4
f 37/2/4 38/2/4 39/2/4
f 39/2/4 38/2/4 40/2/4
f 43/2/5 42/2/5 41/2/5
f 44/2/5 42/2/5 43/2/5
f 45/1/6 46/1/6 47/1/6
f 47/1/6 46/1/6 48/1/6
f 49/2/6 50/2/6 51/2/6
f 51/2/6 50/2/6 52/2/6
f 51/1/6 52/1/6 53/1/6
f 53/1/6 52/1/6 54/1/6
f 55/1/6 56/1/6 57/1/6
f 57/1/6 56/1/6 58/1/6
f 57/2/6 58/2/6 59/2/6
f 59/2/6 58/2/6 60/2/6
