# MagicaVoxel @ Ephtracy

# group
o 

# material
mtllib Sarten.mtl
usemtl palette

# normals
vn -1 0 0
vn 1 0 0
vn 0 0 1
vn 0 0 -1
vn 0 -1 0
vn 0 1 0

# texcoords
vt 0.982422 0.5
vt 0.986328 0.5
vt 0.994141 0.5

# verts
v -0.6 0 0.8
v -0.6 0 -0.3
v -0.6 0.2 0.8
v -0.6 0.2 -0.3
v -0.2 0 -0.3
v -0.2 0 -0.4
v -0.2 0.2 -0.3
v -0.2 0.2 -0.4
v -0.0999999 0 -0.4
v -0.0999999 0 -0.9
v -0.0999999 0.2 -0.4
v -0.0999999 0.2 -0.9
v 0.4 0.1 0.7
v 0.4 0.1 -0.2
v 0.4 0.2 0.7
v 0.4 0.2 -0.2
v -0.5 0.1 0.7
v -0.5 0.1 -0.2
v -0.5 0.2 0.7
v -0.5 0.2 -0.2
v 5.96046e-008 0 -0.4
v 5.96046e-008 0 -0.9
v 5.96046e-008 0.2 -0.4
v 5.96046e-008 0.2 -0.9
v 0.1 0 -0.3
v 0.1 0 -0.4
v 0.1 0.2 -0.3
v 0.1 0.2 -0.4
v 0.5 0 0.8
v 0.5 0 -0.3
v 0.5 0.2 0.8
v 0.5 0.2 -0.3
v -0.6 0 0.8
v -0.6 0.2 0.8
v 0.5 0 0.8
v 0.5 0.2 0.8
v -0.5 0.1 -0.2
v -0.5 0.2 -0.2
v 0.4 0.1 -0.2
v 0.4 0.2 -0.2
v -0.5 0.1 0.7
v -0.5 0.2 0.7
v 0.4 0.1 0.7
v 0.4 0.2 0.7
v -0.6 0 -0.3
v -0.6 0.2 -0.3
v -0.2 0 -0.3
v -0.2 0.2 -0.3
v 0.1 0 -0.3
v 0.1 0.2 -0.3
v 0.5 0 -0.3
v 0.5 0.2 -0.3
v -0.2 0 -0.4
v -0.2 0.2 -0.4
v -0.0999999 0 -0.4
v -0.0999999 0.2 -0.4
v 5.96046e-008 0 -0.4
v 5.96046e-008 0.2 -0.4
v 0.1 0 -0.4
v 0.1 0.2 -0.4
v -0.0999999 0 -0.9
v -0.0999999 0.2 -0.9
v 5.96046e-008 0 -0.9
v 5.96046e-008 0.2 -0.9
v -0.6 0 0.8
v 0.5 0 0.8
v -0.4 0 0.6
v 0.3 0 0.6
v -0.4 0 -0.1
v 0.3 0 -0.1
v -0.6 0 -0.3
v -0.2 0 -0.3
v 0.1 0 -0.3
v 0.5 0 -0.3
v -0.2 0 -0.4
v -0.0999999 0 -0.4
v 5.96046e-008 0 -0.4
v 0.1 0 -0.4
v -0.0999999 0 -0.9
v 5.96046e-008 0 -0.9
v -0.5 0.1 0.7
v 0.4 0.1 0.7
v -0.4 0.1 0.6
v 0.3 0.1 0.6
v -0.4 0.1 -0.1
v 0.3 0.1 -0.1
v -0.5 0.1 -0.2
v 0.4 0.1 -0.2
v -0.6 0.2 0.8
v 0.5 0.2 0.8
v -0.5 0.2 0.7
v 0.4 0.2 0.7
v -0.5 0.2 -0.2
v 0.4 0.2 -0.2
v -0.6 0.2 -0.3
v -0.2 0.2 -0.3
v 0.1 0.2 -0.3
v 0.5 0.2 -0.3
v -0.2 0.2 -0.4
v -0.0999999 0.2 -0.4
v 5.96046e-008 0.2 -0.4
v 0.1 0.2 -0.4
v -0.0999999 0.2 -0.9
v 5.96046e-008 0.2 -0.9

# faces
f 3/1/1 2/1/1 1/1/1
f 4/1/1 2/1/1 3/1/1
f 7/1/1 6/1/1 5/1/1
f 8/1/1 6/1/1 7/1/1
f 11/3/1 10/3/1 9/3/1
f 12/3/1 10/3/1 11/3/1
f 15/1/1 14/1/1 13/1/1
f 16/1/1 14/1/1 15/1/1
f 17/1/2 18/1/2 19/1/2
f 19/1/2 18/1/2 20/1/2
f 21/3/2 22/3/2 23/3/2
f 23/3/2 22/3/2 24/3/2
f 25/1/2 26/1/2 27/1/2
f 27/1/2 26/1/2 28/1/2
f 29/1/2 30/1/2 31/1/2
f 31/1/2 30/1/2 32/1/2
f 35/1/3 34/1/3 33/1/3
f 36/1/3 34/1/3 35/1/3
f 39/1/3 38/1/3 37/1/3
f 40/1/3 38/1/3 39/1/3
f 41/1/4 42/1/4 43/1/4
f 43/1/4 42/1/4 44/1/4
f 45/1/4 46/1/4 47/1/4
f 47/1/4 46/1/4 48/1/4
f 49/1/4 50/1/4 51/1/4
f 51/1/4 50/1/4 52/1/4
f 53/1/4 54/1/4 55/1/4
f 55/1/4 54/1/4 56/1/4
f 57/1/4 58/1/4 59/1/4
f 59/1/4 58/1/4 60/1/4
f 61/3/4 62/3/4 63/3/4
f 63/3/4 62/3/4 64/3/4
f 67/1/5 66/1/5 65/1/5
f 68/1/5 66/1/5 67/1/5
f 69/1/5 67/1/5 65/1/5
f 69/2/5 68/2/5 67/2/5
f 70/1/5 66/1/5 68/1/5
f 70/2/5 68/2/5 69/2/5
f 71/1/5 69/1/5 65/1/5
f 71/1/5 70/1/5 69/1/5
f 72/1/5 70/1/5 71/1/5
f 73/1/5 70/1/5 72/1/5
f 74/1/5 66/1/5 70/1/5
f 74/1/5 70/1/5 73/1/5
f 75/1/5 73/1/5 72/1/5
f 76/1/5 73/1/5 75/1/5
f 77/1/5 73/1/5 76/1/5
f 78/1/5 73/1/5 77/1/5
f 79/3/5 77/3/5 76/3/5
f 80/3/5 77/3/5 79/3/5
f 81/1/6 82/1/6 83/1/6
f 83/1/6 82/1/6 84/1/6
f 81/1/6 83/1/6 85/1/6
f 83/2/6 84/2/6 85/2/6
f 84/1/6 82/1/6 86/1/6
f 85/2/6 84/2/6 86/2/6
f 81/1/6 85/1/6 87/1/6
f 85/1/6 86/1/6 87/1/6
f 86/1/6 82/1/6 88/1/6
f 87/1/6 86/1/6 88/1/6
f 89/1/6 90/1/6 91/1/6
f 91/1/6 90/1/6 92/1/6
f 89/1/6 91/1/6 93/1/6
f 92/1/6 90/1/6 94/1/6
f 89/1/6 93/1/6 95/1/6
f 93/1/6 94/1/6 95/1/6
f 95/1/6 94/1/6 96/1/6
f 96/1/6 94/1/6 97/1/6
f 94/1/6 90/1/6 98/1/6
f 97/1/6 94/1/6 98/1/6
f 96/1/6 97/1/6 99/1/6
f 99/1/6 97/1/6 100/1/6
f 100/1/6 97/1/6 101/1/6
f 101/1/6 97/1/6 102/1/6
f 100/3/6 101/3/6 103/3/6
f 103/3/6 101/3/6 104/3/6
