# MagicaVoxel @ Ephtracy

# group
o 

# material
mtllib carGray.mtl
usemtl palette

# normals
vn -1 0 0
vn 1 0 0
vn 0 0 1
vn 0 0 -1
vn 0 -1 0
vn 0 1 0

# texcoords
vt 0.591797 0.5
vt 0.974609 0.5
vt 0.986328 0.5
vt 0.994141 0.5

# verts
v -2 0.3 2
v -2 0.3 -2
v -2 1 2
v -2 1 -2
v -1.5 1 2
v -1.5 1 -2
v -1.5 1.1 2
v -1.5 1.1 -2
v -1.4 0.1 2
v -1.4 0.1 1.6
v -1.4 0.1 -1.7
v -1.4 0.1 -2
v -1.4 0.3 2
v -1.4 0.3 1.6
v -1.4 0.3 -1.7
v -1.4 0.3 -2
v -1.3 0 2
v -1.3 0 1.7
v -1.3 0 -1.7
v -1.3 0 -2
v -1.3 0.1 2
v -1.3 0.1 1.7
v -1.3 0.1 -1.7
v -1.3 0.1 -2
v -1 1.1 2
v -1 1.1 -2
v -1 1.2 1.9
v -1 1.2 0.3
v -1 1.2 -0.2
v -1 1.2 -1.9
v -1 1.6 1.9
v -1 1.6 0.3
v -1 1.6 -0.2
v -1 1.6 -1.9
v -1 1.7 2
v -1 1.7 -2
v -0.6 1.7 2
v -0.6 1.7 -2
v -0.6 1.8 2
v -0.6 1.8 -2
v 2.38419e-007 0.1 2
v 2.38419e-007 0.1 1.6
v 2.38419e-007 0.1 -1.8
v 2.38419e-007 0.1 -2
v 2.38419e-007 0.3 2
v 2.38419e-007 0.3 1.6
v 2.38419e-007 0.3 -1.8
v 2.38419e-007 0.3 -2
v 0.1 0 2
v 0.1 0 1.7
v 0.1 0 -1.7
v 0.1 0 -2
v 0.1 0.1 2
v 0.1 0.1 1.7
v 0.1 0.1 -1.8
v 0.1 0.1 -2
v 0.1 0.3 -1.7
v 0.1 0.3 -1.8
v -0.6 0 2
v -0.6 0 1.7
v -0.6 0 -1.7
v -0.6 0 -2
v -0.6 0.1 2
v -0.6 0.1 1.7
v -0.6 0.1 1.6
v -0.6 0.1 -1.7
v -0.6 0.1 -2
v -0.6 0.3 1.7
v -0.6 0.3 1.6
v -0.5 0.1 2
v -0.5 0.1 1.7
v -0.5 0.1 -1.7
v -0.5 0.1 -2
v -0.5 0.3 2
v -0.5 0.3 1.7
v -0.5 0.3 -1.7
v -0.5 0.3 -2
v 0.8 0 2
v 0.8 0 1.7
v 0.8 0 -1.7
v 0.8 0 -2
v 0.8 0.1 2
v 0.8 0.1 1.7
v 0.8 0.1 1.6
v 0.8 0.1 -1.8
v 0.8 0.1 -2
v 0.8 0.3 1.7
v 0.8 0.3 1.6
v 0.8 0.3 -1.7
v 0.8 0.3 -1.8
v 0.9 0.1 2
v 0.9 0.1 1.7
v 0.9 0.1 -1.8
v 0.9 0.1 -2
v 0.9 0.3 2
v 0.9 0.3 1.7
v 0.9 0.3 -1.8
v 0.9 0.3 -2
v 1 1.6 2
v 1 1.6 -2
v 1 1.8 2
v 1 1.8 -2
v 1.1 1 2
v 1.1 1 -2
v 1.1 1.3 1.7
v 1.1 1.3 -1.7
v 1.1 1.5 1.7
v 1.1 1.5 -1.7
v 1.1 1.6 2
v 1.1 1.6 -2
v 2 0.3 2
v 2 0.3 -2
v 2 1 2
v 2 1 -2
v -2 0.3 2
v -2 1 2
v -1.5 1 2
v -1.5 1.1 2
v -1.4 0.1 2
v -1.4 0.3 2
v -1.4 0.5 2
v -1.3 0 2
v -1.3 0.1 2
v -1.3 0.2 2
v -1.3 0.4 2
v -1.3 0.5 2
v -1.3 0.6 2
v -1.2 0.1 2
v -1.2 0.2 2
v -1.2 0.4 2
v -1.2 0.5 2
v -1.2 0.6 2
v -1.2 0.7 2
v -1.1 0.5 2
v -1.1 0.6 2
v -1 0.3 2
v -1 0.4 2
v -1 1.1 2
v -1 1.7 2
v -0.9 0.3 2
v -0.9 0.4 2
v -0.9 1.1 2
v -0.9 1.6 2
v -0.8 0.5 2
v -0.8 0.6 2
v -0.7 0.1 2
v -0.7 0.2 2
v -0.7 0.4 2
v -0.7 0.5 2
v -0.7 0.6 2
v -0.7 0.7 2
v -0.6 0 2
v -0.6 0.1 2
v -0.6 0.2 2
v -0.6 0.4 2
v -0.6 0.5 2
v -0.6 0.6 2
v -0.6 1.7 2
v -0.6 1.8 2
v -0.5 0.1 2
v -0.5 0.3 2
v -0.5 0.5 2
v -0.3 1.1 2
v -0.3 1.6 2
v -0.0999999 1.1 2
v -0.0999999 1.6 2
v 2.38419e-007 0.1 2
v 2.38419e-007 0.3 2
v 2.38419e-007 0.5 2
v 0.1 0 2
v 0.1 0.1 2
v 0.1 0.2 2
v 0.1 0.4 2
v 0.1 0.5 2
v 0.1 0.6 2
v 0.2 0.1 2
v 0.2 0.2 2
v 0.2 0.4 2
v 0.2 0.5 2
v 0.2 0.6 2
v 0.2 0.7 2
v 0.3 0.5 2
v 0.3 0.6 2
v 0.4 0.3 2
v 0.4 0.4 2
v 0.5 0.3 2
v 0.5 0.4 2
v 0.6 0.5 2
v 0.6 0.6 2
v 0.7 0.1 2
v 0.7 0.2 2
v 0.7 0.4 2
v 0.7 0.5 2
v 0.7 0.6 2
v 0.7 0.7 2
v 0.8 0 2
v 0.8 0.1 2
v 0.8 0.2 2
v 0.8 0.4 2
v 0.8 0.5 2
v 0.8 0.6 2
v 0.9 0.1 2
v 0.9 0.3 2
v 0.9 0.5 2
v 0.9 1.1 2
v 0.9 1.6 2
v 1 1.6 2
v 1 1.8 2
v 1.1 1 2
v 1.1 1.6 2
v 2 0.3 2
v 2 1 2
v -1.4 0.1 -1.7
v -1.4 0.3 -1.7
v -1.3 0 -1.7
v -1.3 0.1 -1.7
v -0.6 0 -1.7
v -0.6 0.1 -1.7
v -0.5 0.1 -1.7
v -0.5 0.3 -1.7
v 0.1 0 -1.7
v 0.1 0.3 -1.7
v 0.8 0 -1.7
v 0.8 0.3 -1.7
v 2.38419e-007 0.1 -1.8
v 2.38419e-007 0.3 -1.8
v 0.1 0.1 -1.8
v 0.1 0.3 -1.8
v 0.8 0.1 -1.8
v 0.8 0.3 -1.8
v 0.9 0.1 -1.8
v 0.9 0.3 -1.8
v -1.3 0 1.7
v -1.3 0.1 1.7
v -0.6 0 1.7
v -0.6 0.1 1.7
v -0.6 0.3 1.7
v -0.5 0.1 1.7
v -0.5 0.3 1.7
v 0.1 0 1.7
v 0.1 0.1 1.7
v 0.8 0 1.7
v 0.8 0.1 1.7
v 0.8 0.3 1.7
v 0.9 0.1 1.7
v 0.9 0.3 1.7
v -1.4 0.1 1.6
v -1.4 0.3 1.6
v -0.6 0.1 1.6
v -0.6 0.3 1.6
v 2.38419e-007 0.1 1.6
v 2.38419e-007 0.3 1.6
v 0.8 0.1 1.6
v 0.8 0.3 1.6
v -2 0.3 -2
v -2 1 -2
v -1.5 1 -2
v -1.5 1.1 -2
v -1.4 0.1 -2
v -1.4 0.3 -2
v -1.4 0.5 -2
v -1.3 0 -2
v -1.3 0.1 -2
v -1.3 0.2 -2
v -1.3 0.4 -2
v -1.3 0.5 -2
v -1.3 0.6 -2
v -1.2 0.1 -2
v -1.2 0.2 -2
v -1.2 0.4 -2
v -1.2 0.5 -2
v -1.2 0.6 -2
v -1.2 0.7 -2
v -1.1 0.5 -2
v -1.1 0.6 -2
v -1 0.3 -2
v -1 0.4 -2
v -1 1.1 -2
v -1 1.7 -2
v -0.9 0.3 -2
v -0.9 0.4 -2
v -0.9 1.1 -2
v -0.9 1.6 -2
v -0.8 0.5 -2
v -0.8 0.6 -2
v -0.7 0.1 -2
v -0.7 0.2 -2
v -0.7 0.4 -2
v -0.7 0.5 -2
v -0.7 0.6 -2
v -0.7 0.7 -2
v -0.6 0 -2
v -0.6 0.1 -2
v -0.6 0.2 -2
v -0.6 0.4 -2
v -0.6 0.5 -2
v -0.6 0.6 -2
v -0.6 1.7 -2
v -0.6 1.8 -2
v -0.5 0.1 -2
v -0.5 0.3 -2
v -0.5 0.5 -2
v -0.3 1.1 -2
v -0.3 1.6 -2
v -0.0999999 1.1 -2
v -0.0999999 1.6 -2
v 2.38419e-007 0.1 -2
v 2.38419e-007 0.3 -2
v 2.38419e-007 0.5 -2
v 0.1 0 -2
v 0.1 0.1 -2
v 0.1 0.2 -2
v 0.1 0.4 -2
v 0.1 0.5 -2
v 0.1 0.6 -2
v 0.2 0.1 -2
v 0.2 0.2 -2
v 0.2 0.4 -2
v 0.2 0.5 -2
v 0.2 0.6 -2
v 0.2 0.7 -2
v 0.3 0.5 -2
v 0.3 0.6 -2
v 0.4 0.3 -2
v 0.4 0.4 -2
v 0.5 0.3 -2
v 0.5 0.4 -2
v 0.6 0.5 -2
v 0.6 0.6 -2
v 0.7 0.1 -2
v 0.7 0.2 -2
v 0.7 0.4 -2
v 0.7 0.5 -2
v 0.7 0.6 -2
v 0.7 0.7 -2
v 0.8 0 -2
v 0.8 0.1 -2
v 0.8 0.2 -2
v 0.8 0.4 -2
v 0.8 0.5 -2
v 0.8 0.6 -2
v 0.9 0.1 -2
v 0.9 0.3 -2
v 0.9 0.5 -2
v 0.9 1.1 -2
v 0.9 1.6 -2
v 1 1.6 -2
v 1 1.8 -2
v 1.1 1 -2
v 1.1 1.6 -2
v 2 0.3 -2
v 2 1 -2
v -1.3 0 2
v -0.6 0 2
v 0.1 0 2
v 0.8 0 2
v -1.3 0 1.7
v -0.6 0 1.7
v 0.1 0 1.7
v 0.8 0 1.7
v -1.3 0 -1.7
v -0.6 0 -1.7
v 0.1 0 -1.7
v 0.8 0 -1.7
v -1.3 0 -2
v -0.6 0 -2
v 0.1 0 -2
v 0.8 0 -2
v -1.4 0.1 2
v -1.3 0.1 2
v -0.6 0.1 2
v -0.5 0.1 2
v 2.38419e-007 0.1 2
v 0.1 0.1 2
v 0.8 0.1 2
v 0.9 0.1 2
v -1.3 0.1 1.7
v -0.6 0.1 1.7
v -0.5 0.1 1.7
v 0.1 0.1 1.7
v 0.8 0.1 1.7
v 0.9 0.1 1.7
v -1.4 0.1 1.6
v -0.6 0.1 1.6
v 2.38419e-007 0.1 1.6
v 0.8 0.1 1.6
v -1.4 0.1 -1.7
v -1.3 0.1 -1.7
v -0.6 0.1 -1.7
v -0.5 0.1 -1.7
v 2.38419e-007 0.1 -1.8
v 0.1 0.1 -1.8
v 0.8 0.1 -1.8
v 0.9 0.1 -1.8
v -1.4 0.1 -2
v -1.3 0.1 -2
v -0.6 0.1 -2
v -0.5 0.1 -2
v 2.38419e-007 0.1 -2
v 0.1 0.1 -2
v 0.8 0.1 -2
v 0.9 0.1 -2
v -2 0.3 2
v -1.4 0.3 2
v -0.5 0.3 2
v 2.38419e-007 0.3 2
v 0.9 0.3 2
v 2 0.3 2
v -0.6 0.3 1.7
v -0.5 0.3 1.7
v 0.8 0.3 1.7
v 0.9 0.3 1.7
v -1.4 0.3 1.6
v -0.6 0.3 1.6
v 2.38419e-007 0.3 1.6
v 0.8 0.3 1.6
v -1.4 0.3 -1.7
v -0.5 0.3 -1.7
v 0.1 0.3 -1.7
v 0.8 0.3 -1.7
v 2.38419e-007 0.3 -1.8
v 0.1 0.3 -1.8
v 0.8 0.3 -1.8
v 0.9 0.3 -1.8
v -2 0.3 -2
v -1.4 0.3 -2
v -0.5 0.3 -2
v 2.38419e-007 0.3 -2
v 0.9 0.3 -2
v 2 0.3 -2
v -2 1 2
v -1.5 1 2
v 1.1 1 2
v 2 1 2
v -2 1 -2
v -1.5 1 -2
v 1.1 1 -2
v 2 1 -2
v -1.5 1.1 2
v -1 1.1 2
v -1.5 1.1 -2
v -1 1.1 -2
v 1 1.6 2
v 1.1 1.6 2
v 1 1.6 -2
v 1.1 1.6 -2
v -1 1.7 2
v -0.6 1.7 2
v -1 1.7 -2
v -0.6 1.7 -2
v -0.6 1.8 2
v 1 1.8 2
v -0.6 1.8 -2
v 1 1.8 -2

# faces
f 3/2/1 2/2/1 1/2/1
f 4/2/1 2/2/1 3/2/1
f 7/2/1 6/2/1 5/2/1
f 8/2/1 6/2/1 7/2/1
f 13/4/1 10/4/1 9/4/1
f 14/4/1 10/4/1 13/4/1
f 15/4/1 12/4/1 11/4/1
f 16/4/1 12/4/1 15/4/1
f 21/4/1 18/4/1 17/4/1
f 22/4/1 18/4/1 21/4/1
f 23/4/1 20/4/1 19/4/1
f 24/4/1 20/4/1 23/4/1
f 27/2/1 26/2/1 25/2/1
f 28/2/1 26/2/1 27/2/1
f 29/2/1 26/2/1 28/2/1
f 30/2/1 26/2/1 29/2/1
f 31/2/1 27/2/1 25/2/1
f 31/1/1 28/1/1 27/1/1
f 32/2/1 29/2/1 28/2/1
f 32/1/1 28/1/1 31/1/1
f 33/1/1 30/1/1 29/1/1
f 33/2/1 29/2/1 32/2/1
f 34/2/1 26/2/1 30/2/1
f 34/1/1 30/1/1 33/1/1
f 35/2/1 33/2/1 32/2/1
f 35/2/1 32/2/1 31/2/1
f 35/2/1 34/2/1 33/2/1
f 35/2/1 31/2/1 25/2/1
f 36/2/1 26/2/1 34/2/1
f 36/2/1 34/2/1 35/2/1
f 39/2/1 38/2/1 37/2/1
f 40/2/1 38/2/1 39/2/1
f 45/4/1 42/4/1 41/4/1
f 46/4/1 42/4/1 45/4/1
f 47/4/1 44/4/1 43/4/1
f 48/4/1 44/4/1 47/4/1
f 53/4/1 50/4/1 49/4/1
f 54/4/1 50/4/1 53/4/1
f 55/4/1 52/4/1 51/4/1
f 56/4/1 52/4/1 55/4/1
f 57/4/1 55/4/1 51/4/1
f 58/4/1 55/4/1 57/4/1
f 59/4/2 60/4/2 63/4/2
f 63/4/2 60/4/2 64/4/2
f 61/4/2 62/4/2 66/4/2
f 66/4/2 62/4/2 67/4/2
f 64/4/2 65/4/2 68/4/2
f 68/4/2 65/4/2 69/4/2
f 70/4/2 71/4/2 74/4/2
f 74/4/2 71/4/2 75/4/2
f 72/4/2 73/4/2 76/4/2
f 76/4/2 73/4/2 77/4/2
f 78/4/2 79/4/2 82/4/2
f 82/4/2 79/4/2 83/4/2
f 80/4/2 81/4/2 85/4/2
f 85/4/2 81/4/2 86/4/2
f 83/4/2 84/4/2 87/4/2
f 87/4/2 84/4/2 88/4/2
f 80/4/2 85/4/2 89/4/2
f 89/4/2 85/4/2 90/4/2
f 91/4/2 92/4/2 95/4/2
f 95/4/2 92/4/2 96/4/2
f 93/4/2 94/4/2 97/4/2
f 97/4/2 94/4/2 98/4/2
f 99/2/2 100/2/2 101/2/2
f 101/2/2 100/2/2 102/2/2
f 103/2/2 104/2/2 105/2/2
f 105/2/2 104/2/2 106/2/2
f 103/2/2 105/2/2 107/2/2
f 105/1/2 106/1/2 107/1/2
f 106/2/2 104/2/2 108/2/2
f 107/1/2 106/1/2 108/1/2
f 103/2/2 107/2/2 109/2/2
f 107/2/2 108/2/2 109/2/2
f 108/2/2 104/2/2 110/2/2
f 109/2/2 108/2/2 110/2/2
f 111/2/2 112/2/2 113/2/2
f 113/2/2 112/2/2 114/2/2
f 117/2/3 116/2/3 115/2/3
f 120/2/3 117/2/3 115/2/3
f 120/2/3 118/2/3 117/2/3
f 121/2/3 118/2/3 120/2/3
f 123/4/3 120/4/3 119/4/3
f 123/4/3 121/4/3 120/4/3
f 124/4/3 121/4/3 123/4/3
f 125/4/3 121/4/3 124/4/3
f 126/2/3 118/2/3 121/2/3
f 126/4/3 121/4/3 125/4/3
f 127/2/3 118/2/3 126/2/3
f 128/4/3 123/4/3 122/4/3
f 128/4/3 124/4/3 123/4/3
f 129/3/3 125/3/3 124/3/3
f 129/4/3 124/4/3 128/4/3
f 130/4/3 127/4/3 126/4/3
f 130/3/3 125/3/3 129/3/3
f 130/4/3 126/4/3 125/4/3
f 131/4/3 127/4/3 130/4/3
f 132/2/3 118/2/3 127/2/3
f 132/4/3 127/4/3 131/4/3
f 133/2/3 118/2/3 132/2/3
f 134/3/3 131/3/3 130/3/3
f 134/3/3 129/3/3 128/3/3
f 134/4/3 133/4/3 132/4/3
f 134/4/3 132/4/3 131/4/3
f 134/3/3 130/3/3 129/3/3
f 135/4/3 133/4/3 134/4/3
f 136/3/3 134/3/3 128/3/3
f 136/3/3 135/3/3 134/3/3
f 137/3/3 135/3/3 136/3/3
f 138/2/3 118/2/3 133/2/3
f 140/3/3 136/3/3 128/3/3
f 140/4/3 137/4/3 136/4/3
f 141/3/3 135/3/3 137/3/3
f 141/4/3 137/4/3 140/4/3
f 142/2/3 139/2/3 138/2/3
f 142/2/3 138/2/3 133/2/3
f 143/2/3 139/2/3 142/2/3
f 144/3/3 135/3/3 141/3/3
f 144/3/3 141/3/3 140/3/3
f 145/4/3 133/4/3 135/4/3
f 145/3/3 135/3/3 144/3/3
f 146/4/3 128/4/3 122/4/3
f 146/3/3 140/3/3 128/3/3
f 146/3/3 144/3/3 140/3/3
f 147/3/3 144/3/3 146/3/3
f 148/3/3 144/3/3 147/3/3
f 149/4/3 145/4/3 144/4/3
f 149/3/3 144/3/3 148/3/3
f 150/4/3 133/4/3 145/4/3
f 150/4/3 145/4/3 149/4/3
f 151/2/3 142/2/3 133/2/3
f 151/4/3 133/4/3 150/4/3
f 152/4/3 146/4/3 122/4/3
f 152/4/3 147/4/3 146/4/3
f 153/4/3 147/4/3 152/4/3
f 154/3/3 148/3/3 147/3/3
f 154/4/3 147/4/3 153/4/3
f 155/4/3 149/4/3 148/4/3
f 155/3/3 148/3/3 154/3/3
f 155/4/3 150/4/3 149/4/3
f 156/4/3 150/4/3 155/4/3
f 157/2/3 151/2/3 150/2/3
f 157/4/3 150/4/3 156/4/3
f 158/2/3 139/2/3 143/2/3
f 160/4/3 154/4/3 153/4/3
f 160/4/3 156/4/3 155/4/3
f 160/4/3 155/4/3 154/4/3
f 161/4/3 156/4/3 160/4/3
f 162/2/3 157/2/3 156/2/3
f 162/4/3 156/4/3 161/4/3
f 163/2/3 151/2/3 157/2/3
f 163/2/3 157/2/3 162/2/3
f 163/2/3 162/2/3 161/2/3
f 163/1/3 143/1/3 142/1/3
f 163/2/3 142/2/3 151/2/3
f 164/2/3 159/2/3 158/2/3
f 164/1/3 143/1/3 163/1/3
f 164/2/3 158/2/3 143/2/3
f 165/2/3 163/2/3 161/2/3
f 165/2/3 164/2/3 163/2/3
f 166/2/3 159/2/3 164/2/3
f 166/2/3 164/2/3 165/2/3
f 168/2/3 165/2/3 161/2/3
f 169/2/3 165/2/3 168/2/3
f 171/4/3 168/4/3 167/4/3
f 171/4/3 169/4/3 168/4/3
f 172/4/3 169/4/3 171/4/3
f 173/4/3 169/4/3 172/4/3
f 174/2/3 165/2/3 169/2/3
f 174/4/3 169/4/3 173/4/3
f 175/2/3 165/2/3 174/2/3
f 176/4/3 171/4/3 170/4/3
f 176/4/3 172/4/3 171/4/3
f 177/3/3 173/3/3 172/3/3
f 177/4/3 172/4/3 176/4/3
f 178/4/3 175/4/3 174/4/3
f 178/3/3 173/3/3 177/3/3
f 178/4/3 174/4/3 173/4/3
f 179/4/3 175/4/3 178/4/3
f 180/2/3 165/2/3 175/2/3
f 180/4/3 175/4/3 179/4/3
f 181/2/3 165/2/3 180/2/3
f 182/3/3 179/3/3 178/3/3
f 182/3/3 177/3/3 176/3/3
f 182/4/3 181/4/3 180/4/3
f 182/4/3 180/4/3 179/4/3
f 182/3/3 178/3/3 177/3/3
f 183/4/3 181/4/3 182/4/3
f 184/3/3 182/3/3 176/3/3
f 184/3/3 183/3/3 182/3/3
f 185/3/3 183/3/3 184/3/3
f 186/3/3 184/3/3 176/3/3
f 186/4/3 185/4/3 184/4/3
f 187/3/3 183/3/3 185/3/3
f 187/4/3 185/4/3 186/4/3
f 188/3/3 187/3/3 186/3/3
f 188/3/3 183/3/3 187/3/3
f 189/4/3 181/4/3 183/4/3
f 189/3/3 183/3/3 188/3/3
f 190/4/3 176/4/3 170/4/3
f 190/3/3 188/3/3 186/3/3
f 190/3/3 186/3/3 176/3/3
f 191/3/3 188/3/3 190/3/3
f 192/3/3 188/3/3 191/3/3
f 193/4/3 189/4/3 188/4/3
f 193/3/3 188/3/3 192/3/3
f 194/4/3 181/4/3 189/4/3
f 194/4/3 189/4/3 193/4/3
f 195/2/3 165/2/3 181/2/3
f 195/4/3 181/4/3 194/4/3
f 196/4/3 190/4/3 170/4/3
f 196/4/3 191/4/3 190/4/3
f 197/4/3 191/4/3 196/4/3
f 198/3/3 192/3/3 191/3/3
f 198/4/3 191/4/3 197/4/3
f 199/4/3 193/4/3 192/4/3
f 199/3/3 192/3/3 198/3/3
f 199/4/3 194/4/3 193/4/3
f 200/4/3 194/4/3 199/4/3
f 201/2/3 195/2/3 194/2/3
f 201/4/3 194/4/3 200/4/3
f 202/4/3 198/4/3 197/4/3
f 202/4/3 200/4/3 199/4/3
f 202/4/3 199/4/3 198/4/3
f 203/4/3 200/4/3 202/4/3
f 204/2/3 201/2/3 200/2/3
f 204/4/3 200/4/3 203/4/3
f 205/1/3 166/1/3 165/1/3
f 205/2/3 201/2/3 204/2/3
f 205/2/3 195/2/3 201/2/3
f 205/2/3 165/2/3 195/2/3
f 206/2/3 159/2/3 166/2/3
f 206/1/3 166/1/3 205/1/3
f 207/2/3 205/2/3 204/2/3
f 207/2/3 159/2/3 206/2/3
f 207/2/3 206/2/3 205/2/3
f 207/2/3 204/2/3 203/2/3
f 208/2/3 159/2/3 207/2/3
f 209/2/3 207/2/3 203/2/3
f 210/2/3 207/2/3 209/2/3
f 211/2/3 209/2/3 203/2/3
f 212/2/3 209/2/3 211/2/3
f 216/4/3 214/4/3 213/4/3
f 217/4/3 216/4/3 215/4/3
f 218/4/3 214/4/3 216/4/3
f 218/4/3 216/4/3 217/4/3
f 219/4/3 214/4/3 218/4/3
f 220/4/3 214/4/3 219/4/3
f 223/4/3 222/4/3 221/4/3
f 224/4/3 222/4/3 223/4/3
f 227/4/3 226/4/3 225/4/3
f 228/4/3 226/4/3 227/4/3
f 231/4/3 230/4/3 229/4/3
f 232/4/3 230/4/3 231/4/3
f 233/4/4 234/4/4 235/4/4
f 235/4/4 234/4/4 236/4/4
f 236/4/4 237/4/4 238/4/4
f 238/4/4 237/4/4 239/4/4
f 240/4/4 241/4/4 242/4/4
f 242/4/4 241/4/4 243/4/4
f 243/4/4 244/4/4 245/4/4
f 245/4/4 244/4/4 246/4/4
f 247/4/4 248/4/4 249/4/4
f 249/4/4 248/4/4 250/4/4
f 251/4/4 252/4/4 253/4/4
f 253/4/4 252/4/4 254/4/4
f 255/2/4 256/2/4 257/2/4
f 255/2/4 257/2/4 260/2/4
f 257/2/4 258/2/4 260/2/4
f 260/2/4 258/2/4 261/2/4
f 259/4/4 260/4/4 263/4/4
f 260/4/4 261/4/4 263/4/4
f 263/4/4 261/4/4 264/4/4
f 264/4/4 261/4/4 265/4/4
f 261/2/4 258/2/4 266/2/4
f 265/4/4 261/4/4 266/4/4
f 266/2/4 258/2/4 267/2/4
f 262/4/4 263/4/4 268/4/4
f 263/4/4 264/4/4 268/4/4
f 264/3/4 265/3/4 269/3/4
f 268/4/4 264/4/4 269/4/4
f 266/4/4 267/4/4 270/4/4
f 269/3/4 265/3/4 270/3/4
f 265/4/4 266/4/4 270/4/4
f 270/4/4 267/4/4 271/4/4
f 267/2/4 258/2/4 272/2/4
f 271/4/4 267/4/4 272/4/4
f 272/2/4 258/2/4 273/2/4
f 270/3/4 271/3/4 274/3/4
f 268/3/4 269/3/4 274/3/4
f 272/4/4 273/4/4 274/4/4
f 271/4/4 272/4/4 274/4/4
f 269/3/4 270/3/4 274/3/4
f 274/4/4 273/4/4 275/4/4
f 268/3/4 274/3/4 276/3/4
f 274/3/4 275/3/4 276/3/4
f 276/3/4 275/3/4 277/3/4
f 273/2/4 258/2/4 278/2/4
f 268/3/4 276/3/4 280/3/4
f 276/4/4 277/4/4 280/4/4
f 277/3/4 275/3/4 281/3/4
f 280/4/4 277/4/4 281/4/4
f 278/2/4 279/2/4 282/2/4
f 273/2/4 278/2/4 282/2/4
f 282/2/4 279/2/4 283/2/4
f 281/3/4 275/3/4 284/3/4
f 280/3/4 281/3/4 284/3/4
f 275/4/4 273/4/4 285/4/4
f 284/3/4 275/3/4 285/3/4
f 262/4/4 268/4/4 286/4/4
f 268/3/4 280/3/4 286/3/4
f 280/3/4 284/3/4 286/3/4
f 286/3/4 284/3/4 287/3/4
f 287/3/4 284/3/4 288/3/4
f 284/4/4 285/4/4 289/4/4
f 288/3/4 284/3/4 289/3/4
f 285/4/4 273/4/4 290/4/4
f 289/4/4 285/4/4 290/4/4
f 273/2/4 282/2/4 291/2/4
f 290/4/4 273/4/4 291/4/4
f 262/4/4 286/4/4 292/4/4
f 286/4/4 287/4/4 292/4/4
f 292/4/4 287/4/4 293/4/4
f 287/3/4 288/3/4 294/3/4
f 293/4/4 287/4/4 294/4/4
f 288/4/4 289/4/4 295/4/4
f 294/3/4 288/3/4 295/3/4
f 289/4/4 290/4/4 295/4/4
f 295/4/4 290/4/4 296/4/4
f 290/2/4 291/2/4 297/2/4
f 296/4/4 290/4/4 297/4/4
f 283/2/4 279/2/4 298/2/4
f 293/4/4 294/4/4 300/4/4
f 295/4/4 296/4/4 300/4/4
f 294/4/4 295/4/4 300/4/4
f 300/4/4 296/4/4 301/4/4
f 296/2/4 297/2/4 302/2/4
f 301/4/4 296/4/4 302/4/4
f 297/2/4 291/2/4 303/2/4
f 302/2/4 297/2/4 303/2/4
f 301/2/4 302/2/4 303/2/4
f 282/1/4 283/1/4 303/1/4
f 291/2/4 282/2/4 303/2/4
f 298/2/4 299/2/4 304/2/4
f 303/1/4 283/1/4 304/1/4
f 283/2/4 298/2/4 304/2/4
f 301/2/4 303/2/4 305/2/4
f 303/2/4 304/2/4 305/2/4
f 304/2/4 299/2/4 306/2/4
f 305/2/4 304/2/4 306/2/4
f 301/2/4 305/2/4 308/2/4
f 308/2/4 305/2/4 309/2/4
f 307/4/4 308/4/4 311/4/4
f 308/4/4 309/4/4 311/4/4
f 311/4/4 309/4/4 312/4/4
f 312/4/4 309/4/4 313/4/4
f 309/2/4 305/2/4 314/2/4
f 313/4/4 309/4/4 314/4/4
f 314/2/4 305/2/4 315/2/4
f 310/4/4 311/4/4 316/4/4
f 311/4/4 312/4/4 316/4/4
f 312/3/4 313/3/4 317/3/4
f 316/4/4 312/4/4 317/4/4
f 314/4/4 315/4/4 318/4/4
f 317/3/4 313/3/4 318/3/4
f 313/4/4 314/4/4 318/4/4
f 318/4/4 315/4/4 319/4/4
f 315/2/4 305/2/4 320/2/4
f 319/4/4 315/4/4 320/4/4
f 320/2/4 305/2/4 321/2/4
f 318/3/4 319/3/4 322/3/4
f 316/3/4 317/3/4 322/3/4
f 320/4/4 321/4/4 322/4/4
f 319/4/4 320/4/4 322/4/4
f 317/3/4 318/3/4 322/3/4
f 322/4/4 321/4/4 323/4/4
f 316/3/4 322/3/4 324/3/4
f 322/3/4 323/3/4 324/3/4
f 324/3/4 323/3/4 325/3/4
f 316/3/4 324/3/4 326/3/4
f 324/4/4 325/4/4 326/4/4
f 325/3/4 323/3/4 327/3/4
f 326/4/4 325/4/4 327/4/4
f 326/3/4 327/3/4 328/3/4
f 327/3/4 323/3/4 328/3/4
f 323/4/4 321/4/4 329/4/4
f 328/3/4 323/3/4 329/3/4
f 310/4/4 316/4/4 330/4/4
f 326/3/4 328/3/4 330/3/4
f 316/3/4 326/3/4 330/3/4
f 330/3/4 328/3/4 331/3/4
f 331/3/4 328/3/4 332/3/4
f 328/4/4 329/4/4 333/4/4
f 332/3/4 328/3/4 333/3/4
f 329/4/4 321/4/4 334/4/4
f 333/4/4 329/4/4 334/4/4
f 321/2/4 305/2/4 335/2/4
f 334/4/4 321/4/4 335/4/4
f 310/4/4 330/4/4 336/4/4
f 330/4/4 331/4/4 336/4/4
f 336/4/4 331/4/4 337/4/4
f 331/3/4 332/3/4 338/3/4
f 337/4/4 331/4/4 338/4/4
f 332/4/4 333/4/4 339/4/4
f 338/3/4 332/3/4 339/3/4
f 333/4/4 334/4/4 339/4/4
f 339/4/4 334/4/4 340/4/4
f 334/2/4 335/2/4 341/2/4
f 340/4/4 334/4/4 341/4/4
f 337/4/4 338/4/4 342/4/4
f 339/4/4 340/4/4 342/4/4
f 338/4/4 339/4/4 342/4/4
f 342/4/4 340/4/4 343/4/4
f 340/2/4 341/2/4 344/2/4
f 343/4/4 340/4/4 344/4/4
f 305/1/4 306/1/4 345/1/4
f 344/2/4 341/2/4 345/2/4
f 341/2/4 335/2/4 345/2/4
f 335/2/4 305/2/4 345/2/4
f 306/2/4 299/2/4 346/2/4
f 345/1/4 306/1/4 346/1/4
f 344/2/4 345/2/4 347/2/4
f 346/2/4 299/2/4 347/2/4
f 345/2/4 346/2/4 347/2/4
f 343/2/4 344/2/4 347/2/4
f 347/2/4 299/2/4 348/2/4
f 343/2/4 347/2/4 349/2/4
f 349/2/4 347/2/4 350/2/4
f 343/2/4 349/2/4 351/2/4
f 351/2/4 349/2/4 352/2/4
f 357/4/5 354/4/5 353/4/5
f 358/4/5 354/4/5 357/4/5
f 359/4/5 356/4/5 355/4/5
f 360/4/5 356/4/5 359/4/5
f 365/4/5 362/4/5 361/4/5
f 366/4/5 362/4/5 365/4/5
f 367/4/5 364/4/5 363/4/5
f 368/4/5 364/4/5 367/4/5
f 377/4/5 370/4/5 369/4/5
f 378/4/5 372/4/5 371/4/5
f 379/4/5 372/4/5 378/4/5
f 380/4/5 374/4/5 373/4/5
f 381/4/5 376/4/5 375/4/5
f 382/4/5 376/4/5 381/4/5
f 383/4/5 377/4/5 369/4/5
f 383/4/5 378/4/5 377/4/5
f 384/4/5 378/4/5 383/4/5
f 385/4/5 380/4/5 373/4/5
f 385/4/5 381/4/5 380/4/5
f 386/4/5 381/4/5 385/4/5
f 395/4/5 388/4/5 387/4/5
f 396/4/5 388/4/5 395/4/5
f 397/4/5 390/4/5 389/4/5
f 398/4/5 390/4/5 397/4/5
f 399/4/5 392/4/5 391/4/5
f 400/4/5 392/4/5 399/4/5
f 401/4/5 394/4/5 393/4/5
f 402/4/5 394/4/5 401/4/5
f 410/2/5 406/2/5 405/2/5
f 412/2/5 408/2/5 407/2/5
f 413/2/5 404/2/5 403/2/5
f 414/2/5 410/2/5 409/2/5
f 415/2/5 406/2/5 410/2/5
f 415/2/5 410/2/5 414/2/5
f 416/2/5 412/2/5 411/2/5
f 417/2/5 415/2/5 414/2/5
f 417/2/5 416/2/5 415/2/5
f 417/2/5 413/2/5 403/2/5
f 417/2/5 414/2/5 413/2/5
f 418/2/5 416/2/5 417/2/5
f 419/2/5 416/2/5 418/2/5
f 420/2/5 412/2/5 416/2/5
f 420/2/5 416/2/5 419/2/5
f 421/2/5 419/2/5 418/2/5
f 422/2/5 419/2/5 421/2/5
f 423/2/5 412/2/5 420/2/5
f 424/2/5 408/2/5 412/2/5
f 424/2/5 412/2/5 423/2/5
f 425/2/5 417/2/5 403/2/5
f 426/2/5 417/2/5 425/2/5
f 427/2/5 421/2/5 418/2/5
f 428/2/5 421/2/5 427/2/5
f 429/2/5 408/2/5 424/2/5
f 430/2/5 408/2/5 429/2/5
f 431/2/6 432/2/6 435/2/6
f 435/2/6 432/2/6 436/2/6
f 433/2/6 434/2/6 437/2/6
f 437/2/6 434/2/6 438/2/6
f 439/2/6 440/2/6 441/2/6
f 441/2/6 440/2/6 442/2/6
f 443/2/6 444/2/6 445/2/6
f 445/2/6 444/2/6 446/2/6
f 447/2/6 448/2/6 449/2/6
f 449/2/6 448/2/6 450/2/6
f 451/2/6 452/2/6 453/2/6
f 453/2/6 452/2/6 454/2/6
